<svg id="Capa_1" enable-background="new 0 0 512 512" height="512" viewBox="0 0 512 512" width="512" xmlns="http://www.w3.org/2000/svg"><g><g><path d="m256 327.81c-141.387 0-243.885-160.918-222.672-198.207 44.03-77.402 127.254-129.603 222.672-129.603 95.17 0 178.208 51.929 222.328 128.999 21.425 37.427-80.941 198.811-222.328 198.811z" fill="#84ed48"/><path d="m512 256c0 26.051-3.891 51.191-11.129 74.871-5.031 16.469-11.672 32.231-19.75 47.109-8.25 15.2-147.391 44.599-225.121 44.599s-216.871-29.399-225.109-44.599c-3.289-6.031-6.332-12.21-9.121-18.531-14-31.629-21.77-66.629-21.77-103.449 0-46.219 12.25-89.57 33.68-127 44.121 77.07 127.16 129 222.32 129s178.211-51.93 222.32-129c21.43 37.43 33.68 80.781 33.68 127zm0 0" fill="#23d089"/><path d="m481.262 377.699c-7.16 13.223-15.434 25.742-24.723 37.43-8.437 10.633-17.719 20.57-27.719 29.723-45.539 41.699-106.211 67.148-172.82 67.148-53.274 0-102.75-16.279-143.724-44.131-10.256-6.972-13.423-21.225-22.539-29.574-7.922-7.251-21.951-8.437-28.909-16.629-1.825-2.148-3.614-4.328-5.367-6.537-9.289-11.688-17.563-24.207-24.723-37.43zm0 0" fill="#009f8b"/></g><g><path d="m205.625 325.689-8.141-8.141-32.562 32.562 8.141 8.141 8.14 8.14 32.562-32.562z" fill="#dae0f0"/><path d="m170.389 340.284h46.05v11.512h-46.05z" fill="#c7d0e8" transform="matrix(.707 -.707 .707 .707 -188.037 238.115)"/><path d="m453 262.532v-69.082h-27.907c-2.676-9.546-6.409-18.642-11.188-27.199l19.677-19.677-24.422-24.422-24.422-24.422-19.677 19.665c-8.557-4.767-17.664-8.512-27.199-11.188v-27.894h-69.082v27.896c-9.535 2.676-18.642 6.42-27.199 11.188l-19.677-19.665-48.843 48.843 19.677 19.677c-4.779 8.556-8.512 17.653-11.188 27.199h-27.907v69.082h27.896c2.676 9.535 6.42 18.642 11.188 27.199l-19.665 19.677 24.422 24.422 24.422 24.422 19.677-19.677c8.557 4.779 17.653 8.512 27.199 11.188v27.907h69.082v-27.907c9.546-2.676 18.642-6.409 27.199-11.188l19.677 19.677 48.843-48.843-19.677-19.677c4.767-8.557 8.512-17.653 11.188-27.199h27.906z" fill="#5c6687"/><path d="m337.863 78.313h-69.082v27.896c-9.535 2.676-18.642 6.42-27.199 11.188l-19.677-19.665-48.843 48.843 19.677 19.677c-4.779 8.556-8.512 17.653-11.188 27.199h-27.907v69.082h27.531l156.688-160.17z" fill="#737b97"/><path d="m413.905 166.251 19.677-19.677-24.422-24.422-211.676 211.677 24.422 24.422 19.677-19.677c8.557 4.779 17.653 8.512 27.199 11.188v27.907h69.082v-27.907c9.546-2.676 18.642-6.409 27.199-11.188l19.677 19.677 48.843-48.843-19.677-19.677c4.767-8.557 8.512-17.653 11.188-27.199h27.906v-69.082h-27.907c-2.676-9.546-6.409-18.642-11.188-27.199z" fill="#444f75"/><path d="m360.312 171.002c-.001-.001-.004-.004-.006-.006-31.415-31.415-82.552-31.415-113.967 0-31.505 31.505-31.508 82.493 0 113.979 31.481 31.504 82.48 31.509 113.967 0 31.509-31.487 31.504-82.47.006-113.973z" fill="#fef6eb"/><path d="m360.306 284.975c31.509-31.487 31.504-82.469.006-113.973l-113.973 113.973c31.481 31.503 82.48 31.509 113.967 0z" fill="#dae0f0"/><path d="m156.782 325.689-95.955 95.955c14.971 17.623 32.278 33.197 51.455 46.231l93.343-93.343-24.422-24.422z" fill="#f75e1a"/><path d="m84.902 446.412c8.619 7.75 17.764 14.927 27.38 21.463l93.343-93.343-24.422-24.422z" fill="#fd3d3c"/></g><g fill="#fff"><path d="m108.697 262.11h-1.524c-6.754 0-12.226-5.477-12.226-12.227v-1.523h-8.715v1.523c0 6.75-5.477 12.227-12.227 12.227h-1.527v8.715h1.527c6.75 0 12.227 5.472 12.227 12.226v1.528h8.715v-1.528c0-6.754 5.472-12.226 12.226-12.226h1.524zm0 0"/><path d="m120.641 153.617h-1.524c-6.754 0-12.226-5.477-12.226-12.227v-1.523h-8.715v1.523c0 6.75-5.477 12.227-12.227 12.227h-1.527v8.715h1.527c6.75 0 12.227 5.472 12.227 12.226v1.528h8.715v-1.528c0-6.754 5.472-12.226 12.226-12.226h1.524zm0 0"/><path d="m196.866 69.641h-1.524c-6.754 0-12.226-5.477-12.226-12.227v-1.524h-8.715v1.523c0 6.75-5.477 12.227-12.227 12.227h-1.527v8.715h1.527c6.75 0 12.227 5.472 12.227 12.226v1.528h8.715v-1.528c0-6.754 5.472-12.226 12.226-12.226h1.524zm0 0"/></g></g></svg>